<!DOCTYPE svg PUBLIC "-//W3C//DTD SVG 1.1//EN" "http://www.w3.org/Graphics/SVG/1.1/DTD/svg11.dtd">
<!-- Uploaded to: SVG Repo, www.svgrepo.com, Transformed by: SVG Repo Mixer Tools -->
<svg fill="#000000" width="800px" height="800px" viewBox="0 0 24 24" id="blueprint-architecture" data-name="Flat Line" xmlns="http://www.w3.org/2000/svg" class="icon flat-line">
<g id="SVGRepo_bgCarrier" stroke-width="0"/>
<g id="SVGRepo_tracerCarrier" stroke-linecap="round" stroke-linejoin="round"/>
<g id="SVGRepo_iconCarrier">
<path id="secondary" d="M20,9H17.8l-2,2H13V9H7v8H5a2,2,0,0,0,0,4H20a1,1,0,0,0,1-1V10A1,1,0,0,0,20,9Z" style="fill: #2ca9bc; stroke-width: 2;"/>
<path id="primary" d="M21,10V20a1,1,0,0,1-1,1H5a2,2,0,0,1,0-4H7V9h6v2h2.8l2-2H20A1,1,0,0,1,21,10ZM5,6A2,2,0,0,0,3,8V19a2,2,0,0,1,2-2H7V6ZM20.71,4.69l-1.4-1.4a1,1,0,0,0-1.4,0L13,8.2V11h2.8l4.91-4.91A1,1,0,0,0,20.71,4.69Z" style="fill: none; stroke: #000000; stroke-linecap: round; stroke-linejoin: round; stroke-width: 2;"/>
</g>
</svg>